<svg viewBox="0 0 64 64" xmlns="http://www.w3.org/2000/svg"><circle cx="32" cy="32" r="21" fill="#aa494a"/><circle cx="32" cy="32" r="19" fill="#d36767"/><path fill="#3a4249" d="M31 7h2v8h-2zM20.918 9.568l1.828-.813L26 16.065l-1.828.813zM16.496 12.362l1.618-1.176 4.704 6.473-1.618 1.176zM9.849 20.367l1-1.732 6.928 4-1 1.732zM7.031 30.382l.21-1.989 7.956.836-.209 1.99zM7.032 33.617l7.957-.836.209 1.99-7.957.835zM9.848 43.635l6.93-4 .999 1.733-6.929 4zM16.496 51.636l4.703-6.473 1.618 1.176-4.703 6.473zM20.915 54.432l3.254-7.308 1.827.813-3.254 7.309zM31 49h2v8h-2zM38.002 47.939l1.827-.814 3.254 7.31-1.827.813zM41.187 46.34l1.618-1.176 4.704 6.473-1.618 1.176zM46.222 41.367l1-1.732 6.928 4-1 1.732zM48.802 34.774l.209-1.99 7.957.837-.209 1.989zM48.802 29.227l7.957-.836.209 1.989-7.957.836zM46.224 22.635l6.929-4 1 1.733-6.93 4zM41.182 17.658l4.703-6.473 1.618 1.176-4.703 6.473zM38 16.065l3.253-7.31 1.827.814-3.254 7.309z"/><path d="M44 32a1 1 0 01-.913-.591c-.473-1.056.258-2.017.792-2.719.205-.269.63-.83.616-1.015-.136-.034-.78.154-1.123.253-.832.24-1.97.566-2.728-.26-.766-.738-.416-1.836-.134-2.72.088-.274.238-.744.256-1.001-.19.111-.596.43-.83.613-.724.568-1.626 1.273-2.621.787-.98-.414-1.021-1.564-1.053-2.489-.009-.268-.025-.716-.083-.972-.132.186-.38.589-.527.828-.483.786-1.082 1.768-2.189 1.642-1.058-.059-1.484-1.126-1.827-1.984-.1-.251-.269-.672-.412-.895-.057.217-.152.672-.208.942-.189.905-.424 2.032-1.514 2.283-1.011.299-1.773-.562-2.388-1.25-.186-.208-.5-.562-.714-.719.015.222.081.695.12.973.128.917.289 2.06-.648 2.676-.846.632-1.86.106-2.674-.315-.27-.14-.741-.384-.987-.431.047.216.301.704.446.98.43.823.964 1.848.313 2.776-.558.912-1.733.832-2.59.773-.405-.028-1.161-.079-1.238.093a1 1 0 01-1.826-.816c.646-1.448 2.244-1.339 3.201-1.273.207.014.485.033.687.028a8.896 8.896 0 00-.319-.657c-.463-.888-1.163-2.229-.153-3.329 1.127-1.094 2.542-.36 3.387.078.145.075.327.169.49.245a12.45 12.45 0 00-.068-.552c-.139-.995-.35-2.499.978-3.151 1.406-.601 2.42.536 3.09 1.288.1.112.225.252.343.375.04-.162.078-.342.108-.487.193-.923.516-2.469 1.982-2.63 1.509-.095 2.081 1.317 2.453 2.25.054.136.122.305.189.457.093-.139.188-.295.266-.421.527-.856 1.327-2.147 2.755-1.818 1.469.419 1.524 1.998 1.557 2.941.005.153.012.344.025.516.141-.102.293-.221.415-.317.796-.624 1.999-1.567 3.243-.748 1.238.915.777 2.36.472 3.317a9.783 9.783 0 00-.18.605 10.7 10.7 0 00.583-.156c.917-.264 2.454-.707 3.339.56.829 1.339-.083 2.54-.687 3.334-.174.229-.457.601-.523.782a1 1 0 01-.539 1.231.97.97 0 01-.41.09z" fill="#f2daae"/><circle cx="32" cy="5" r="3" fill="#62c4c3"/><circle cx="8.617" cy="18.5" r="3" fill="#62c4c3"/><path d="M7.117 42.902a3.001 3.001 0 003 5.196 3.001 3.001 0 00-3-5.196z" fill="#62c4c3"/><circle cx="32" cy="59" r="3" fill="#62c4c3"/><path d="M56.883 42.902a3.001 3.001 0 00-3 5.196 3.001 3.001 0 003-5.196z" fill="#62c4c3"/><circle cx="55.383" cy="18.5" r="3" fill="#62c4c3"/></svg>